<?xml version="1.0" encoding="UTF-8"?>
<!DOCTYPE svg PUBLIC "-//W3C//DTD SVG 1.1//EN" "http://www.w3.org/Graphics/SVG/1.1/DTD/svg11.dtd">
<!-- Creator: CorelDRAW -->
<svg xmlns="http://www.w3.org/2000/svg" xml:space="preserve" width="262.5mm" height="58.66mm" version="1.1" style="shape-rendering:geometricPrecision; text-rendering:geometricPrecision; image-rendering:optimizeQuality; fill-rule:evenodd; clip-rule:evenodd"
viewBox="0 0 26250 5866"
 xmlns:xlink="http://www.w3.org/1999/xlink"
 xmlns:xodm="http://www.corel.com/coreldraw/odm/2003">
 <defs>
  <style type="text/css">
   <![CDATA[
    .fil0 {fill:#FEFEFE;fill-rule:nonzero}
   ]]>
  </style>
 </defs>
 <g id="Camada_x0020_1">
  <metadata id="CorelCorpID_0Corel-Layer"/>
  <g id="_2765323329824">
   <path class="fil0" d="M3813.7 2164.28c94.14,0 171.96,73.27 177.59,167.23l37.17 614.39 17.21 0c54.29,-263.4 186.78,-468.1 397.21,-614.15 210.4,-145.99 480.27,-219.02 809.54,-219.02 352.14,0 625.52,83.09 820.32,249.09 194.64,166.08 292.04,398.05 292.04,695.72l0 1185.38 -223.35 0 0 -1168.18c0,-251.89 -85.92,-448.75 -257.7,-590.53 -171.8,-141.73 -410.91,-212.54 -717.2,-212.54 -357.9,0 -635.63,90.15 -833.16,270.56 -197.54,180.4 -296.31,432.31 -296.31,755.8l0 944.89 -223.36 0 0 -2078.64z"/>
   <path class="fil0" d="M8733.17 2473.48c-170.34,-134.57 -408.69,-201.81 -715.07,-201.81 -234.77,0 -437.33,45.1 -607.67,135.26 -170.36,90.23 -300.65,215.5 -390.82,375.8 -90.16,160.38 -135.32,343.52 -135.32,549.67l0 910.46 -219.01 0 0 -3152.21c121.01,0 219.01,98 219.01,219.01l0 1314.15 -21.48 347.86 30.09 0c31.45,-166.02 100.21,-314.14 206.15,-444.5 105.92,-130.23 243.36,-231.88 412.36,-304.91 168.89,-73.02 362.09,-109.5 579.74,-109.5 352.11,0 627.01,79.41 824.55,238.35 197.53,158.92 296.31,382.96 296.31,672.11l0 1219.64 -223.28 0 0 -1202.5c0,-243.24 -85.21,-432.24 -255.56,-566.88z"/>
   <path class="fil0" d="M9894.87 4013.14c140.27,84.44 339.25,126.71 596.94,126.71 346.42,0 622.7,-83.09 828.91,-249.17 206.15,-165.93 314.9,-403.68 326.38,-712.84 -289.21,-22.93 -659.99,-34.35 -1112.33,-34.35 -269.12,0 -478.16,42.27 -627.04,126.72 -148.85,84.44 -223.35,208.26 -223.35,371.39 0,163.19 70.14,287.09 210.49,371.54zm1769.37 -569.08l-21.48 0c-51.48,260.59 -185.33,466.74 -401.54,618.42 -216.19,151.84 -493.22,227.69 -830.96,227.69 -312.14,0 -549.04,-52.24 -710.79,-156.8 -161.83,-104.48 -242.69,-256.94 -242.69,-457.37 0,-200.34 88.03,-352.11 264.17,-455.23 176.06,-103.09 418.75,-154.58 727.93,-154.58 478.07,0 877.56,12.87 1198.22,38.62l-4.34 -107.39c-2.89,-231.88 -85.82,-410.83 -249.08,-536.78 -163.19,-125.96 -392.26,-189.01 -687.11,-189.01 -160.38,0 -322.88,15.09 -487.46,45.09 -164.63,30.07 -318.52,72.34 -461.68,126.71l-30.09 -163.19c148.88,-54.37 309.93,-95.88 483.18,-124.51 173.17,-28.64 347.09,-42.95 521.78,-42.95 363.62,0 643.49,75.85 839.64,227.62 196.02,151.78 294.18,364.98 294.18,639.9l0 1262.58 -163.19 0 -38.69 -798.82z"/>
   <path class="fil0" d="M13253.22 2112.76c183.22,0 363.53,13.62 541.12,40.82 177.51,27.17 337.8,65.1 481.05,113.75l-12.95 163.2c-303.46,-103.03 -635.54,-154.58 -996.29,-154.58 -272.07,0 -478.22,30.07 -618.49,90.16 -140.26,60.16 -210.4,154.67 -210.4,283.52 0,131.65 70.14,232.63 210.4,302.68 140.27,70.22 359.28,119.65 657.11,148.21 392.18,37.23 677.83,101.65 856.78,193.26 178.94,91.61 268.42,229.07 268.42,412.27 0,191.84 -103.79,338.65 -311.38,440.17 -207.57,101.67 -506.09,152.46 -895.37,152.46 -415.26,0 -770.28,-50.12 -1065.13,-150.26l8.59 -171.79c146.08,51.55 309.87,91.68 491.71,120.24 181.78,28.62 367.21,42.96 556.21,42.96 320.6,0 563.23,-39.31 727.93,-118.12 164.57,-78.66 246.97,-191.06 246.97,-337.11 0,-140.29 -74.47,-245.53 -223.35,-315.66 -148.97,-70.13 -389.44,-122.46 -721.46,-156.8 -360.81,-34.34 -625.67,-98 -794.56,-191.12 -168.98,-93 -253.36,-225.43 -253.36,-397.21 0,-340.72 352.12,-511.05 1056.45,-511.05z"/>
   <path class="fil0" d="M17139.23 3438.32c180.33,118.87 435.13,178.19 764.4,178.19 329.19,0 584.08,-59.32 764.48,-178.19 180.33,-118.81 270.56,-284.12 270.56,-496.05 0,-211.85 -89.54,-375.82 -268.42,-491.71 -178.95,-115.98 -434.53,-173.92 -766.62,-173.92 -332.1,0 -587.74,57.94 -766.54,173.92 -179.04,115.89 -268.51,279.86 -268.51,491.71 0,211.93 90.25,377.24 270.65,496.05zm631.28 311.38c-214.74,-2.83 -380.82,2.81 -498.18,17.14 -117.41,14.37 -199.65,38.68 -246.95,73.02 -47.21,34.35 -70.89,81.64 -70.89,141.72 0,71.58 32.27,122.37 96.71,152.46 64.35,30.07 171.02,50.86 319.9,62.28l1378.56 120.25c229.07,19.95 398.74,60.83 508.92,122.37 110.19,61.53 165.41,161.06 165.41,298.52 0,125.96 -44.47,250.46 -133.19,373.59l-219.01 0c94.51,-114.53 141.71,-226.18 141.71,-334.99 0,-97.31 -41.57,-166.78 -124.5,-208.27 -83.09,-41.51 -217.64,-70.91 -403.69,-88.03l-1352.89 -115.98c-220.46,-17.14 -372.23,-51.48 -455.16,-103.03 -83.07,-51.57 -124.58,-124.51 -124.58,-219.01 0,-83.09 27.96,-147.44 83.69,-193.28 55.89,-45.77 146.05,-77.97 270.65,-96.62 124.51,-18.59 299.87,-26.45 526.05,-23.62l0 -12.86c-323.57,-25.82 -569.76,-105.93 -738.67,-240.56 -168.98,-134.57 -253.36,-317.79 -253.36,-549.67 0,-254.8 103.12,-452.4 309.24,-592.69 206.15,-140.27 495.23,-210.47 867.44,-210.47 312.07,0 563.98,53.06 755.88,158.92 191.75,105.92 313.52,246.28 365.07,420.89l21.48 0 38.62 -871.85 163.19 0 0 1125.2c0,254.87 -108.82,451.65 -326.39,590.56 -217.56,138.91 -528.19,208.26 -931.94,208.26l-133.12 -4.25z"/>
   <path class="fil0" d="M19651.55 4022.38c140.27,84.46 339.25,126.73 596.95,126.73 346.41,0 622.76,-83.02 828.9,-249.11 206.13,-166.08 314.79,-403.74 326.39,-712.92 -289.24,-22.93 -660.02,-34.35 -1112.42,-34.35 -269.12,0 -478.16,42.27 -626.95,126.65 -148.88,84.53 -223.35,208.35 -223.35,371.54 0,163.19 70.13,287.01 210.48,371.46zm1769.35 -569.08l-21.45 0c-51.57,260.59 -185.36,466.74 -401.55,618.42 -216.2,151.86 -493.24,227.63 -830.96,227.63 -312.15,0 -549.06,-52.18 -710.81,-156.72 -161.74,-104.48 -242.69,-256.94 -242.69,-457.37 0,-200.42 88.03,-352.2 264.17,-455.23 176.06,-103.11 418.69,-154.66 727.86,-154.66 478.22,0 877.57,12.95 1198.32,38.68l-4.34 -107.37c-2.89,-231.88 -85.91,-410.76 -249.11,-536.78 -163.19,-126.04 -392.32,-189.01 -687.17,-189.01 -160.3,0 -322.82,15.07 -487.37,45.07 -164.64,30.09 -318.61,72.36 -461.71,126.71l-30.09 -163.19c148.88,-54.35 309.93,-95.86 483.18,-124.57 173.17,-28.56 347.11,-42.96 521.81,-42.96 363.53,0 643.46,75.92 839.55,227.69 196.17,151.77 294.26,365 294.26,639.9l0 1262.6 -163.28 0 -38.62 -798.84z"/>
   <path class="fil0" d="M23022.79 4307.96c-272.01,0 -479.6,-57.96 -622.76,-173.94 -143.16,-115.98 -214.67,-289.84 -214.67,-521.78l0 -1275.53 -515.39 0 0 -163.19 541.12 0 -47.21 -605.49 274.83 0 -85.89 605.49 1223.98 0 0 163.19 -1163.9 0 0 1266.92c0,180.41 55.13,315.65 165.39,405.88 110.13,90.17 268.36,135.26 474.57,135.26 160.3,0 336.38,-21.48 528.19,-64.44l25.82 163.2c-189.01,42.95 -383.72,64.43 -584.08,64.43z"/>
   <path class="fil0" d="M23967.62 4022.38c140.26,84.46 339.25,126.73 596.94,126.73 346.42,0 622.76,-83.02 828.91,-249.11 206.15,-166.08 314.81,-403.74 326.38,-712.92 -289.21,-22.93 -659.99,-34.35 -1112.42,-34.35 -269.11,0 -478.15,42.27 -626.95,126.65 -148.88,84.53 -223.35,208.35 -223.35,371.54 0,163.19 70.13,287.01 210.49,371.46zm1769.37 -569.08l-21.48 0c-51.54,260.59 -185.36,466.74 -401.54,618.42 -216.19,151.86 -493.22,227.63 -830.96,227.63 -312.14,0 -549.05,-52.18 -710.79,-156.72 -161.75,-104.48 -242.69,-256.94 -242.69,-457.37 0,-200.42 88.02,-352.2 264.15,-455.23 176.07,-103.11 418.68,-154.66 727.86,-154.66 478.22,0 877.56,12.95 1198.31,38.68l-4.34 -107.37c-2.89,-231.88 -85.89,-410.76 -249.08,-536.78 -163.19,-126.04 -392.35,-189.01 -687.19,-189.01 -160.3,0 -322.8,15.07 -487.38,45.07 -164.63,30.09 -318.61,72.36 -461.7,126.71l-30.07 -163.19c148.88,-54.35 309.93,-95.86 483.18,-124.57 173.17,-28.56 347.09,-42.96 521.78,-42.96 363.53,0 643.49,75.92 839.57,227.69 196.16,151.77 294.25,365 294.25,639.9l0 1262.6 -163.28 0 -38.6 -798.84z"/>
   <path class="fil0" d="M14905.73 3474.69c52.62,44.71 127.64,67.09 224.95,67.09 103.72,0 183.82,-22.38 240.4,-67.09 56.6,-44.68 84.92,-108.21 84.92,-190.52 0,-81.55 -28.32,-144.69 -84.92,-189.39 -56.58,-44.71 -136.68,-67.09 -240.4,-67.09 -97.31,0 -172.33,22.16 -224.95,66.48 -52.61,44.4 -78.96,107.67 -78.96,190 0,82.31 26.35,145.84 78.96,190.52zm614.38 96.79l-46.3 0 -11.87 -205.45 -5.94 0c-13.47,69.68 -50.4,123.9 -111.04,162.67 -60.52,38.83 -139.03,58.17 -235.59,58.17 -110.89,0 -196.11,-26.27 -255.88,-78.89 -59.77,-52.69 -89.63,-127.25 -89.63,-223.81 0,-96.55 29.71,-170.96 89.03,-223.2 59.4,-52.24 143.69,-78.36 252.9,-78.36 98.15,0 177.5,18.96 238.05,56.97 60.53,37.99 97.92,92.22 112.16,162.65l4.73 0 -2.37 -195.85 0 -306.37 61.75 0 0 871.47z"/>
   <path class="fil0" d="M16252.64 3271.09c-0.84,-76.76 -28.32,-137.16 -82.55,-181.09 -54.22,-43.86 -126.4,-65.88 -216.66,-65.88 -92.58,0 -166.38,22.63 -221.36,67.7 -55.05,45.09 -82.94,107.69 -83.76,187.56l604.33 -8.29zm-485.62 279.54c-57.73,-24.07 -102.5,-58.93 -134.1,-104.39 -31.66,-45.55 -47.51,-99.92 -47.51,-163.28 0,-62.51 14.85,-116.35 44.53,-161.44 29.64,-45.16 71.97,-79.57 127.04,-103.33 54.98,-23.77 119.69,-35.56 194.1,-35.56 111.56,0 199.67,25.89 264.17,77.74 64.5,51.87 97.16,123.69 97.94,215.43 0,6.41 -0.78,13.49 -2.38,21.41l-662.5 0c3.2,76.76 34.26,136.92 93.21,180.48 58.93,43.48 136.69,65.26 233.33,65.26 36.39,0 74.92,-4.13 115.74,-12.42 40.74,-8.37 76.16,-19.64 106.23,-33.89l7.16 43.95c-30.91,14.23 -67.69,25.5 -110.41,33.81 -42.8,8.29 -83.54,12.47 -122.31,12.47 -78.35,0 -146.44,-12.02 -204.24,-36.24z"/>
   <path class="fil0" d="M3041.91 28.94c-27.11,0.69 -54.29,1.36 -81.4,2.05 26.27,-30.91 53.23,-37.3 81.4,-2.05z"/>
   <path class="fil0" d="M1733.12 5386.02c16.75,-26.75 -43.86,-189.79 -70.76,-218.65 -282.67,-303.61 -451.88,-664.25 -598.54,-1036.27 -79.2,-200.79 -149.25,-404.8 -244.38,-600.05 -13.55,-27.89 -28.4,-55.21 -48.26,-93.59 47.6,16.75 58.93,50.94 77.97,77.51 196.32,273.84 324.63,579.05 466.88,877.87 125.66,264.02 257.16,525.14 443.88,758.08 17.38,21.72 45.85,208.67 31.45,235.1l-58.24 0z"/>
   <path class="fil0" d="M2123.87 912.82c28.48,-91.76 41.88,-188.08 93.58,-272.69 23.46,-38.53 43.95,-80.2 96.64,-110.57 -129.54,258.99 -103.33,523.83 -89.86,785.89 24.46,475.78 84.08,950.35 53.32,1427.82 -19.58,303.48 -56.13,603.96 -201.73,882.52 -47.38,90.54 -48.35,89.87 -149.26,53.6 -200.5,-71.88 -348.38,-202.63 -470,-363.08 -115.98,-152.91 -208.8,-321.5 -356.02,-453.48 -76.83,-68.84 -163.19,-121.83 -281.74,-152.91 92.9,-14.47 161.05,15.6 226.85,44.1 196.99,85.28 329.96,235.61 451.88,395.82 99.9,131.44 189.46,270.11 315.78,382.66 46.85,41.75 97.49,78.59 151.86,111.64 34.71,21.09 49.72,17.6 65.8,-21.09 69.44,-167.68 102.04,-342.38 120.69,-519.88 15.39,-146.29 16.23,-293.18 17.52,-440.07 0.46,-50.95 -13.4,-91.62 -45.69,-132.67 -140.42,-178.35 -290.99,-350.07 -410.68,-542.12 -74.32,-119.18 -137.68,-241.94 -154.67,-381.36 -8.37,-68.08 -2.28,-134.27 23.08,-198.77 0,0 4.88,0.78 4.88,0.78l3.5 -3.28c-7.93,121.62 31.9,232.03 89.38,338.88 108.37,201.18 252.99,379.98 395.7,560.01 23.29,29.4 47.6,58.11 82.61,100.68 -8.53,-275.23 -1.9,-532.53 -140.27,-769.29 51.25,13.95 53.32,64.26 96.49,89.86 -17.35,-276.13 -23.22,-544.85 10.36,-813z"/>
   <path class="fil0" d="M2756.61 1361.34c50.16,296.62 103.4,592.84 149.78,890 50.49,323.49 106.53,646.89 88.49,975.8 -8.23,150.31 -38.69,295.54 -125.72,425.83 -12.26,18.35 -25.13,36.33 -39.01,53.6 -4.03,4.96 -12.47,6.78 -29.98,15.84 88.39,-254.26 89.08,-508 80.86,-761.81 -11.81,-363.32 -57.48,-724.11 -98.93,-1085.16 -18.11,-157.78 -35.7,-315.63 -52,-473.58 -1.99,-19.19 -15.24,-43.48 12.8,-58.09 4.56,5.85 9.13,11.72 13.71,17.57z"/>
   <path class="fil0" d="M2711.71 1101.27c0.62,-5.93 1.23,-11.87 1.92,-17.89 28.62,90.77 33.05,184.75 42.93,277.96 -4.49,-5.87 -9.06,-11.74 -13.62,-17.59 -49.88,-37.39 -30.24,-90.17 -33.67,-137.16 -2.5,-34.86 1.38,-70.2 2.44,-105.32z"/>
   <path class="fil0" d="M2663.36 462.36c-24.22,-24.82 -14.92,-53.77 -11.42,-81.94 28.25,-25.12 47.75,-59.25 99.08,-83.84 -33.68,63.75 -60.7,114.76 -87.66,165.78z"/>
   <path class="fil0" d="M3191.5 578.65c-36.3,5.16 -21.3,-22.41 -27.09,-36.78 33.2,-15.7 62.28,-42.72 104.78,-33.14 -22.86,26.27 -64.8,34.11 -77.69,69.92z"/>
   <path class="fil0" d="M954.88 2956.36c-51.31,-107.67 -140.49,-187.02 -231.11,-265.22 -89.47,-73.87 -183.97,-133.58 -312.91,-94.27 -81.85,31.13 -123.51,83.3 -111.19,176.51 30.4,228.9 133.36,422.33 345.75,554.76 52.84,1.45 59.99,84.45 148.1,49.65 81.03,-31.99 140.5,-66.94 181.32,-135.39 61.52,-99.47 24.29,-193.13 -19.96,-286.04z"/>
   <path class="fil0" d="M2711.3 1043.1c7.4,-195.25 -30.07,-387.3 -47.97,-580.74 -24.22,-24.82 -14.93,-53.77 -11.41,-81.94 -31.09,-27.71 -27.57,-69.98 -49.5,-101.65 -18.59,-26.89 -35.58,-55.82 -77,-28.64 -60.4,24.44 -91.07,71.21 -110.05,126.86 -24.52,56.21 -52.08,110.05 -60.07,173.01 -9.91,78.6 -19.79,156.5 -16.9,235.62 3.95,110.73 106.22,273.99 232.78,302.7 -12.41,-47.75 -11.8,-96.71 -15,-145.45 3.2,48.74 2.59,97.7 15,145.45 43.18,39.01 92,24.91 140.51,12.95 0.69,-5.93 1.29,-11.87 1.9,-17.81 -0.76,-13.49 -1.51,-26.96 -2.29,-40.36z"/>
   <path class="fil0" d="M1970.18 1476.4c-61,-114.99 -113.24,-234.62 -206.6,-332.17 -10.88,-13.17 -20.25,-27.8 -33.05,-39.22 -23.53,-21.01 -46.99,-50.56 -83.69,-40.2 -37.23,10.43 -51.03,43.48 -59.62,77.28 -11.96,47.06 -13.79,94.66 -0.93,140.96 11.96,43.11 8.23,83.84 -5.09,125.11 0,0 4.88,0.84 4.88,0.84 0,0 3.49,-3.34 3.49,-3.34 39.07,-4.94 35.58,27.65 45.16,46.45 37.24,73.57 90.62,130.21 176.6,155.27 72.72,30.01 142.32,16.36 210.7,-12.95 -17.27,-39.29 -34.56,-78.66 -51.85,-118.03z"/>
   <path class="fil0" d="M3191.5 578.65c-36.3,5.16 -21.3,-22.41 -27.09,-36.78 -6.47,-59.41 -7.92,-119.72 -20.48,-177.98 -24.61,-113.91 -29.64,-233.48 -101.97,-334.98 -27.18,0.67 -54.29,1.36 -81.41,2.06 -2.07,2.89 -2.74,6 -1.98,9.43 0,0 0,0 0,0 -50.56,38.77 -71.73,93.66 -93.97,147.97 -20.63,25.82 -29.48,59.54 -69.22,72.03 -22.47,7.09 -19.88,22.32 -5.94,21.63 41.42,-2.13 24.07,18.05 21.39,35.49 -13.01,84.9 -27.48,169.52 -6.17,255.47 32.9,132.97 99.23,239.5 248.41,283.91 29.47,35.03 97.55,-12.18 115.75,46.99 0,0 2.59,0.37 2.59,0.37 10.36,-21.31 6.32,-43.33 3.73,-65.26 15.39,-86.28 -15.3,-175 16.36,-260.35z"/>
   <path class="fil0" d="M3568.46 459.97c-2.44,-41.12 0.24,-89.78 -47.21,-105.08 -50.49,-16.3 -94.74,8.22 -122.61,52.45 -29.46,33.5 -59.1,66.94 -88.56,100.44 10.27,16.69 -5.85,28.86 -8.44,43.35 -43.72,60.83 -72.06,130.14 -86.52,199.35 -23.62,112.39 -22.47,228.31 64.65,322.28 42.42,45.69 82.7,105.77 166.62,88.26 8.62,-0.54 17.14,-1.14 25.67,-1.68 4.49,-0.3 8.91,-0.45 13.32,-0.45 19.49,-86.22 42.35,-171.87 49.65,-260.14 36.56,-144.61 42.11,-291.13 33.43,-438.78z"/>
   <path class="fil0" d="M3160.4 4780.24c154.12,-213.61 219.7,-301.79 270.65,-478.09 69.98,-241.93 75.46,-499.78 90.07,-750.01 26.06,-444.8 -11.11,-888.14 -29.01,-1331.95 -11.2,-276.73 -26.2,-553.32 -15.69,-830.35 15.46,-25.28 15.24,-51.1 3.52,-77.37 0.37,-5.96 0.82,-11.89 1.36,-17.74 18.04,-44.86 9.06,-90.41 4.12,-135.87 -4.42,0 -8.91,0.15 -13.34,0.46 10.36,44.64 -24.82,85.44 -12.63,130.29 -87.51,708.13 2.59,1420.07 -61.15,2129.95 -10.6,-92.82 -21.03,-185.73 -31.84,-278.55 -51.25,-440.46 -98.84,-881.3 -155.42,-1321.16 -35.49,-275.95 -29.7,-552.54 -35.94,-829.12 -0.69,-28.86 -2.44,-57.66 -3.65,-86.43l-2.59 -0.46c-8.31,104.18 -16.6,208.27 -24.91,312.38 -27.03,79.72 -14.16,161.96 -13.77,242.76 0.45,116.97 -13.8,234.85 13.62,351.05 22.77,546.3 95.5,1089.04 134.72,1634.14 43.93,610.56 8.29,1076.24 -658.94,1774.32l13.4 0c273.16,-187.33 426.89,-298.97 527.42,-438.25z"/>
   <path class="fil0" d="M4424.2 5607.68c0,-101.11 -85.52,-160.75 -233.26,-159.45l-273.54 0 0 322.73 273.54 0c147.74,1.21 233.26,-58.26 233.26,-163.28zm-40.13 -405.64c0,-93.45 -71.27,-146.53 -193.13,-146.53l-273.54 0 0 296.77 273.54 0c121.86,0 193.13,-54.29 193.13,-150.24zm106.29 -15.61c0,106.23 -63.5,182.75 -168.52,204.83 130.84,19.43 207.36,105.02 207.36,229.38 0,154.21 -121.75,246.27 -327.9,246.27l-387.53 0 0 -907.26 382.35 0c182.69,0 294.24,84.23 294.24,226.78z"/>
   <path class="fil0" d="M5225.72 5483.26c-6.56,-132.19 -94.66,-217.78 -228.17,-217.78 -130.9,0 -224.17,85.59 -238.5,217.78l466.67 0zm90.62 80.35l-557.29 0c16.92,134.71 114.08,222.98 247.57,222.98 84.23,0 158.1,-31.15 211.24,-86.91l55.76 58.27c-64.82,71.36 -160.69,112.85 -274.84,112.85 -200.81,0 -339.48,-141.33 -339.48,-344.82 0,-203.47 139.96,-343.5 338.25,-344.73 220.31,0 329.28,151.62 318.79,382.36z"/>
   <polygon class="fil0" points="5598.04,5866.87 5496.91,5866.87 5496.91,4905.16 5598.04,4905.16 "/>
   <path class="fil0" d="M6348.67 5483.26c-6.54,-132.19 -94.65,-217.78 -228.14,-217.78 -130.9,0 -224.19,85.59 -238.51,217.78l466.65 0zm90.62 80.35l-557.27 0c16.91,134.71 114.07,222.98 247.58,222.98 84.2,0 158.16,-31.15 211.24,-86.91l55.73 58.27c-64.8,71.36 -160.68,112.85 -274.68,112.85 -200.97,0 -339.64,-141.33 -339.64,-344.82 0,-203.47 139.97,-343.5 338.28,-344.73 220.31,0 329.27,151.62 318.76,382.36z"/>
   <polygon class="fil0" points="7097,5185.14 7097,5260.3 6669.27,5781.26 7107.36,5782.62 7107.36,5868.14 6547.5,5866.85 6547.5,5791.77 6975.08,5270.75 6559.07,5269.36 6559.07,5185.14 "/>
   <path class="fil0" d="M7690.84 5632.29l0 -82.93 -212.54 0c-114,0 -173.64,35.03 -173.64,111.4 0,75.23 60.94,125.81 156.89,125.81 115.29,0 203.38,-57.12 229.29,-154.28zm1.36 234.62l0 -106.31c-54.44,73.87 -141.33,110.2 -250.23,110.2 -141.2,0 -231.97,-89.5 -231.97,-206.15 0,-119.26 94.66,-194.34 255.35,-195.64l224.19 0 0 -42.8c0,-99.75 -62.15,-160.75 -182.77,-160.75 -75.16,0 -145.06,28.56 -216.42,79.13l-42.72 -71.36c88.11,-58.26 161.98,-92 278.72,-92 168.37,0 261.65,89.49 263.03,234.64l1.29 451.04 -98.47 0z"/>
   <path class="fil0" d="M8903.33 5483.26c-6.54,-132.19 -94.65,-217.78 -228.14,-217.78 -130.9,0 -224.2,85.59 -238.51,217.78l466.65 0zm90.62 80.35l-557.27 0c16.9,134.71 114.06,222.98 247.57,222.98 84.21,0 158.16,-31.15 211.24,-86.91l55.74 58.27c-64.8,71.36 -160.69,112.85 -274.68,112.85 -200.95,0 -339.64,-141.33 -339.64,-344.82 0,-203.47 139.96,-343.5 338.28,-344.73 220.3,0 329.27,151.62 318.76,382.36z"/>
   <polygon class="fil0" points="10186.91,4959.62 10186.91,5055.58 9674.95,5055.58 9674.95,5360.11 10132.53,5360.11 10132.53,5454.77 9674.95,5454.77 9674.95,5770.94 10203.81,5770.94 10203.81,5866.89 9571.38,5866.89 9571.38,4959.62 "/>
   <path class="fil0" d="M10576.21 5265.46c-76.52,0 -134.84,27.26 -134.84,91.98 0,154.36 381.06,75.31 381.06,320.23 0,133.49 -119.27,193.11 -250.1,193.11 -97.25,0 -197.08,-33.66 -261.8,-95.95l38.75 -73.87c58.41,54.46 146.53,86.88 226.93,86.88 80.35,0 145.15,-31.13 146.38,-99.81 3.89,-165.96 -378.41,-81.73 -377.02,-322.74 0,-129.6 112.7,-185.36 237.12,-185.36 81.64,0 160.69,24.61 217.65,62.21l-38.77 77.76c-53.23,-33.66 -121.91,-54.44 -185.36,-54.44z"/>
   <path class="fil0" d="M11341.23 5820.22c-47.9,32.38 -99.77,50.58 -154.21,50.58 -99.84,1.21 -173.71,-58.41 -173.71,-193.13l0 -392.7 -98.45 0 0 -79.05 98.45 0 0 -178.88 99.84 0 0 178.88 216.49 0 0 79.05 -216.49 0 0 375.79c0,82.94 32.44,116.74 90.7,116.74 35.02,-1.36 71.28,-13.01 108.88,-35.01l28.5 77.73z"/>
   <path class="fil0" d="M11774.42 5069.8l-97.16 0 155.42 -175 102.51 46.69 -160.77 128.31zm207.38 413.5c-6.57,-132.28 -94.66,-217.86 -228.17,-217.86 -130.81,0 -224.11,85.58 -238.5,217.86l466.67 0zm90.68 80.26l-557.35 0c16.92,134.79 114.08,222.97 247.57,222.97 84.23,0 158.09,-31.07 211.33,-86.8l55.67 58.24c-64.83,71.36 -160.69,112.78 -274.77,112.78 -200.88,0 -339.55,-141.26 -339.55,-344.73 0,-203.47 139.96,-343.52 338.25,-344.81 220.4,0 329.28,151.68 318.85,382.35z"/>
   <path class="fil0" d="M12599.05 5820.22c-47.9,32.38 -99.75,50.58 -154.21,50.58 -99.83,1.21 -173.7,-58.41 -173.7,-193.13l0 -392.7 -98.46 0 0 -79.05 98.46 0 0 -178.88 99.83 0 0 178.88 216.51 0 0 79.05 -216.51 0 0 375.79c0,82.94 32.45,116.74 90.71,116.74 35.03,-1.36 71.28,-13.01 108.9,-35.01l28.47 77.73z"/>
   <path class="fil0" d="M12852.04 5866.87l-99.77 0 0 -681.69 99.77 0 0 681.69zm15.61 -877.41c0,38.83 -28.49,68.77 -66.18,68.77 -37.54,0 -66.1,-29.94 -66.1,-68.77 0,-40.22 28.56,-68.69 66.1,-68.69 37.69,0 66.18,28.47 66.18,68.69z"/>
   <path class="fil0" d="M13371.97 5272c-141.33,0 -242.39,103.63 -242.39,254.05 0,151.59 101.06,255.25 242.39,255.25 89.41,0 163.27,-31 211.24,-88.11l58.41 59.62c-61,73.87 -155.57,117.97 -273.54,117.97 -198.29,0 -338.25,-141.26 -338.25,-344.73 0,-202.27 141.17,-344.82 338.25,-344.82 110.2,0 200.9,37.62 263.11,101.13l-55.75 69.98c-51.85,-50.57 -120.54,-80.34 -203.47,-80.34z"/>
   <path class="fil0" d="M14210.96 5632.29l0 -82.93 -212.56 0c-114,0 -173.62,35.03 -173.62,111.4 0,75.23 60.92,125.81 156.87,125.81 115.29,0 203.4,-57.12 229.31,-154.28zm1.36 234.62l0 -106.31c-54.44,73.87 -141.35,110.2 -250.23,110.2 -141.2,0 -231.97,-89.5 -231.97,-206.15 0,-119.26 94.66,-194.34 255.35,-195.64l224.19 0 0 -42.8c0,-99.75 -62.15,-160.75 -182.77,-160.75 -75.16,0 -145.08,28.56 -216.42,79.13l-42.72 -71.36c88.09,-58.26 161.96,-92 278.72,-92 168.35,0 261.65,89.49 263.01,234.64l1.29 451.04 -98.45 0z"/>
  </g>
 </g>
</svg>
